<svg version="1" xmlns="http://www.w3.org/2000/svg" width="400" height="400" viewBox="0 0 300.000000 300.000000"><path d="M157.5 17c-4.7 9.3-5.9 11-7.9 11-1.3 0-4.4.3-6.9.6l-4.6.7-6.6-10.3c-4.9-7.5-7.1-10.1-8.3-9.7-.9.2-8.8 2.6-17.6 5.3l-15.9 4.9.6 12.2.6 12.2-6 3.7-6 3.6-11.2-5.8-11.1-5.7-7.8 8.4c-4.3 4.6-9.9 10.7-12.4 13.6l-4.6 5.2 6.7 10.3 6.7 10.2-3.2 6.3-3.3 6.3-6.1.1c-3.3.1-9 .4-12.5.8l-6.5.6-3.8 17.4c-2.1 9.6-3.5 17.8-3.1 18.1.4.4 5.4 3.1 11.1 6l10.2 5.3v4.6c0 2.5.3 5.6.6 6.8.5 1.9-.8 3.1-9.9 9l-10.5 6.8 3.9 12.5c2.2 6.9 4.6 14.9 5.5 17.9l1.6 5.3 5.2-.6c2.8-.3 8.2-.6 12-.8l7-.1 3.6 5.9 3.7 5.9-5.5 11-5.5 11 12.9 12.2c7.1 6.7 13.4 12.2 13.9 12.3.6 0 5.1-2.7 10-6 5-3.3 9.6-6 10.3-6 .7 0 3.9 1.4 7.2 3l6 3 .1 6.8c.1 3.7.4 9.2.7 12.2l.7 5.5 16 3.7c8.8 2 16.8 3.7 17.8 3.7 1.2.1 3.2-2.9 6.9-10.4l5.3-10.5h15.2l6.4 9.7c3.5 5.4 6.4 9.9 6.4 10.1.1.1 1.5-.2 3.1-.7 1.6-.6 9.5-3 17.5-5.5l14.7-4.6-.5-12.3-.6-12.2 6.1-3.8 6.1-3.8L232 255c5.6 2.8 10.7 5 11.4 4.8 1.2-.3 24.6-25.3 24.6-26.3 0-.3-2.9-4.9-6.4-10.2l-6.5-9.6 3.1-6.1c1.7-3.4 3.6-6.4 4.2-6.8.6-.4 4.9-.8 9.6-.9 15.2-.2 13.8 1.2 18.1-17.9 2.1-9.1 3.8-17.1 3.9-17.8 0-.6-4.7-3.5-10.4-6.4l-10.4-5.1-.6-4.5c-1.4-10.2-1.5-10.1 9.5-17.1 5.4-3.5 9.9-6.6 9.9-7 0-.3-2.4-8.2-5.3-17.6l-5.3-17-8 .3c-4.3.2-9.7.5-12 .8l-4.1.6-4-6.4-4-6.3 5.6-10.8 5.6-10.8-9.5-9c-5.2-4.9-11.4-10.6-13.7-12.5l-4.1-3.5-10.1 6.7-10 6.7-6.6-3.4-6.5-3.4-.1-6.5c-.1-3.6-.4-9.2-.8-12.4l-.6-5.9-17-3.8C172.2 7.8 164.2 6 163.8 6c-.4 0-3.3 4.9-6.3 11zm16.4 63c29.7 8.3 49.8 32.4 53.5 64.2l.6 4.8H198.3l-.6-5.7c-.8-7.9-6.3-18.6-12.9-25.2-21.8-21.5-57.7-14.6-71.1 13.6-3 6.4-3.2 7.4-3.2 18.4 0 11.3.1 11.7 3.7 19 6.5 13.1 18 22.4 31.2 25.1 8.7 1.9 8.6 2.1 8.6-15.7 0-10.7.3-15.5 1.1-15.5.9 0 43.3 34.5 49.7 40.5 1.1 1-3.3 5.2-23.7 22.4-13.8 11.7-25.6 20.9-26.1 20.6-.6-.4-1-5.5-1-11.9v-11.3l-7.6-.7c-8.9-.7-22-4.9-30.1-9.7-9.2-5.4-22.1-19-27-28.4-11.6-22.2-11.6-47-.1-68.7 16-30 51.5-45 84.7-35.8z"/></svg>